# xmcd
#
# Track frame offsets:
#	150
#	41708
#	63919
#	105947
#	140213
#
# Disc length: 2234 seconds
#
# Revision: 0
# Processed by: cddbd v1.5.2PL0 Copyright (c) Steve Scherf et al.
# Submitted via: audiograbber 1.83.01
#
DISCID=4108b805
DTITLE=Grateful Dead - 93-06-06 Giants Stadium, East Rutherford NJ
DYEAR=1900
DGENRE=
TTITLE0=Corinna
TTITLE1=Attics Of My Life
TTITLE2=Throwing Stones
TTITLE3=Not Fade Away
TTITLE4=Liberty
EXTD=
EXTT0=
EXTT1=
EXTT2=
EXTT3=
EXTT4=
PLAYORDER=
